<?xml version="1.0" encoding="utf-8"?>
<!-- Generator: Adobe Illustrator 27.3.1, SVG Export Plug-In . SVG Version: 6.00 Build 0)  -->
<svg version="1.1" id="Layer_1" xmlns="http://www.w3.org/2000/svg" xmlns:xlink="http://www.w3.org/1999/xlink" x="0px" y="0px"
	 viewBox="0 0 72 72" style="enable-background:new 0 0 72 72;" xml:space="preserve">
<style type="text/css">
	.st0{fill-rule:evenodd;clip-rule:evenodd;fill:#2E3192;stroke:#000000;stroke-width:0.5;stroke-miterlimit:2.6131;}
	.st1{fill-rule:evenodd;clip-rule:evenodd;fill:#FFFFFF;}
	.st2{fill:#FFFFFF;}
	.st3{fill-rule:evenodd;clip-rule:evenodd;fill:#FFFFFF;stroke:#000000;stroke-width:0.5;stroke-miterlimit:2.6131;}
	.st4{fill-rule:evenodd;clip-rule:evenodd;fill:#ED1C24;}
</style>
<g>
	<ellipse transform="matrix(0.7071 -0.7071 0.7071 0.7071 -15.1187 36.5)" class="st0" cx="36.5" cy="36.5" rx="32.4" ry="32.4"/>
	<path class="st1" d="M12,28.24l1.12,0.29c0.05,0.04,0.09,0.07,0.12,0.1c0.09,0.09,0.16,0.22,0.21,0.36
		c0.05,0.15,0.09,0.31,0.09,0.5c0,0.05,0,0.14-0.01,0.25l1.57-0.92l0.2,0.53l-2.04,1.15l-0.36,0.18c-0.17,0.08-0.32,0.1-0.46,0.07
		c-0.18-0.05-0.26-0.18-0.24-0.39c0.01-0.14,0.07-0.25,0.18-0.34c0.03-0.03,0.09-0.06,0.16-0.1c0.01-0.04,0.02-0.09,0.04-0.15
		c0.01-0.06,0.01-0.11-0.01-0.17c-0.02-0.06-0.05-0.11-0.09-0.15c-0.02-0.01-0.04-0.03-0.06-0.05l-0.71-0.19l-0.39,1.51l-1,0.39
		c1.27-5.31,3.84-10.4,7.9-14.07c-0.04-0.02-0.07-0.05-0.1-0.07c-0.25-0.15-0.46-0.25-0.63-0.3c-0.46-0.13-0.83-0.06-1.13,0.21
		c-0.07,0.07-0.15,0.15-0.23,0.26c-0.08,0.1-0.12,0.23-0.13,0.37c0,0.15,0.05,0.28,0.16,0.39c0.03,0.03,0.05,0.06,0.07,0.07
		c0.07,0.08,0.17,0.14,0.29,0.18c0.04,0.01,0.09,0.03,0.16,0.04l-0.28,0.26c-0.08-0.02-0.14-0.03-0.19-0.05
		c-0.17-0.05-0.3-0.12-0.41-0.19c-0.11-0.08-0.19-0.15-0.26-0.22c-0.17-0.18-0.27-0.39-0.29-0.62c-0.02-0.23,0.06-0.46,0.24-0.69
		c0.08-0.09,0.14-0.16,0.19-0.2c0.3-0.28,0.66-0.41,1.09-0.4c0.33,0.01,0.7,0.11,1.09,0.3c0.19,0.09,0.4,0.2,0.63,0.35
		c0.03,0.02-0.03-0.01,0.03,0.02c1.68-1.54,3.5-2.82,5.69-3.97l1.06,0.46l-1.15,0.59l1.74,3.13l-1.15,0.01l-0.32-0.58
		c-0.06,0.1-0.12,0.18-0.17,0.24c-0.18,0.22-0.38,0.41-0.6,0.56c-0.23,0.16-0.46,0.27-0.68,0.33c-0.29,0.08-0.58,0.07-0.87-0.01
		c-0.22-0.06-0.46-0.18-0.74-0.36c-0.09-0.06-0.21-0.15-0.35-0.27c0.09-0.1,0.16-0.18,0.22-0.24c0.14-0.17,0.3-0.36,0.46-0.59
		c0.06-0.09,0.09-0.16,0.1-0.23c0.01-0.07,0-0.12-0.03-0.16c-0.07-0.1-0.2-0.13-0.31-0.13c-0.75,0.58-1.34,1.03-2.09,1.68l2.45,2.63
		l-1.12,0.29l-2.08-2.23l-1.23,1.26l0.5,0.42c0.06,0.05,0.08,0.12,0.1,0.17c0.05,0.16,0.03,0.36-0.06,0.59
		c-0.2,0.48-0.39,0.96-0.58,1.43c-0.05,0.2-0.01,0.36,0.12,0.48c0.14,0.11,0.32,0.15,0.54,0.1c0.23-0.05,0.44-0.2,0.65-0.44
		c0.05-0.06,0.09-0.11,0.11-0.15c0.21-0.29,0.35-0.63,0.43-1c0.03-0.12,0.04-0.28,0.05-0.48l0.87,0.1
		c-0.03,0.19-0.06,0.33-0.09,0.45c-0.09,0.35-0.23,0.66-0.42,0.93c-0.03,0.04-0.08,0.1-0.14,0.19l2.29-0.25l-0.06,0.46l-1.58,0.21
		l-0.37,1.9l-0.83,0.11l0.4-2.27c-0.35,0.37-0.76,0.61-1.24,0.73c-0.32,0.08-0.6,0.09-0.82,0.03l0.19,0.11
		c0,0.03-0.01,0.06-0.02,0.08c-0.05,0.16-0.11,0.3-0.19,0.44c-0.08,0.15-0.17,0.27-0.25,0.36c-0.08,0.1-0.2,0.21-0.36,0.34
		c-0.28,0.23-0.6,0.4-0.97,0.53c-0.12,0.04-0.28,0.08-0.47,0.12l-1.32-0.76c-0.26,0.45-0.46,0.87-0.71,1.38l3.26,1.59l-0.94,0.67
		L12.7,26.4L12,28.24L12,28.24z M23.81,15.35l-0.57-1.02c-0.44,0.25-0.88,0.53-1.36,0.86c0.11,0.03,0.17,0.05,0.22,0.08
		c0.19,0.08,0.31,0.17,0.39,0.28c0.04,0.06,0.07,0.13,0.08,0.2c0.02,0.18-0.07,0.42-0.29,0.74c-0.07,0.1-0.18,0.24-0.34,0.43
		c0.05,0.04,0.09,0.07,0.13,0.08C22.81,17.25,23.92,16.04,23.81,15.35L23.81,15.35z M14.39,23.14l1.93-0.81l0.53,0.31
		c-0.24-0.22-0.35-0.51-0.33-0.84c0.02-0.28,0.13-0.6,0.33-0.95c0.13-0.24,0.2-0.41,0.21-0.52c0.01-0.04,0-0.07-0.02-0.11
		l-0.36-0.31C15.74,21.11,15.18,21.84,14.39,23.14L14.39,23.14z M16.67,22.64l-1.87,0.83l1,0.58c0.13,0.05,0.23,0.06,0.3,0.05
		c0.13-0.02,0.23-0.1,0.3-0.22c0.1-0.18,0.18-0.44,0.24-0.77C16.65,22.99,16.66,22.84,16.67,22.64z"/>
	<path class="st1" d="M43.63,11.66l-1.14-0.3l-0.75,3.54l-0.88-0.75l0.65-3.01c-0.6-0.13-1.07-0.22-1.7-0.28l-0.38,3.63l-0.95-0.69
		L38.56,13c-0.12,0.12-0.23,0.2-0.32,0.26c-0.31,0.2-0.65,0.29-1.01,0.28c-0.4-0.01-0.75-0.14-1.06-0.38
		c-0.31-0.24-0.5-0.53-0.56-0.88c-0.01-0.04-0.01-0.09-0.01-0.16c0.01-0.3,0.17-0.55,0.47-0.76c0.3-0.21,0.66-0.3,1.07-0.29
		c0.5,0.02,0.9,0.15,1.21,0.4c0.1,0.08,0.2,0.21,0.31,0.37l-0.01,0.25c-0.1-0.07-0.19-0.12-0.27-0.16
		c-0.23-0.11-0.48-0.16-0.74-0.17c-0.18-0.01-0.39,0.02-0.62,0.07c-0.23,0.05-0.42,0.14-0.57,0.27c-0.15,0.13-0.23,0.27-0.24,0.41
		c0,0.03,0.01,0.06,0.02,0.1c0.01,0.03,0.03,0.07,0.05,0.1c0.08,0.09,0.25,0.15,0.51,0.16c0.15,0.01,0.31,0,0.47-0.03
		c0.16-0.02,0.3-0.06,0.43-0.11c0.29-0.12,0.53-0.25,0.74-0.39c0.06-0.04,0.13-0.09,0.21-0.16l-0.01,0.24l0.17-1.64
		c-1.5-0.16-2.99-0.16-4.52-0.01l0.37,3.53l-1.07-0.44l-0.14-1.29c-0.45,0.34-1.16,0.5-1.7,0.33c-0.07-0.02-0.15-0.06-0.26-0.11
		c0,0.01,0,0.02,0,0.03c-0.03,0.07-0.11,0.15-0.24,0.25c-0.08,0.08-0.19,0.16-0.32,0.24c-0.02,0.01-0.05,0.03-0.08,0.05l1.56,0.96
		l-0.37,0.42l-1.98-1.26l-0.32-0.23c-0.15-0.11-0.24-0.24-0.27-0.38c-0.04-0.18,0.04-0.31,0.24-0.39c0.13-0.05,0.26-0.06,0.39,0
		c0.04,0.02,0.1,0.05,0.16,0.09c0.04-0.01,0.07-0.03,0.11-0.04c0.04-0.01,0.08-0.04,0.13-0.09c0.05-0.05,0.07-0.08,0.07-0.11
		c0-0.03-0.01-0.05-0.01-0.06l-0.19-0.83l-1.51,0.42l-0.69-0.69c2.15-0.68,3.57-1,5.46-1.2l-0.41-0.56
		c-0.07-0.1-0.14-0.16-0.19-0.21c-0.16-0.15-0.32-0.26-0.48-0.32c-0.11-0.04-0.2-0.06-0.27-0.07c-0.07-0.01-0.15-0.01-0.24-0.01
		c-0.02,0-0.04,0-0.06,0c-0.02,0-0.04,0-0.05,0l-0.29-0.77c0.08-0.01,0.14-0.02,0.18-0.02c0.18-0.01,0.35,0,0.5,0.05
		c0.15,0.04,0.29,0.11,0.42,0.19c0.22,0.16,0.44,0.4,0.67,0.72c0.07,0.11,0.16,0.26,0.28,0.45l0.32,0.49
		c3.41-0.31,6.25-0.01,9.32,0.76L43.63,11.66L43.63,11.66z M33.33,11.59l-0.09-0.74l-1.93,0.32l0.28,1.17
		c0.06,0.01,0.1,0.01,0.13,0.02C32.39,12.39,33.13,12.2,33.33,11.59z"/>
	<path class="st1" d="M56.37,22.03l-0.99-1.09c0,0.07,0,0.12-0.01,0.16c-0.01,0.14-0.03,0.26-0.07,0.35
		c-0.04,0.09-0.07,0.16-0.1,0.2c-0.03,0.04-0.07,0.09-0.12,0.14c-0.12,0.11-0.26,0.17-0.4,0.17c-0.18,0.01-0.37-0.05-0.57-0.17
		c-0.1-0.06-0.2-0.14-0.29-0.23c-0.33-0.37-0.46-0.84-0.4-1.41c0.03-0.31,0.11-0.65,0.24-1.02c0.05-0.11,0.11-0.26,0.19-0.45
		l0.4,0.22c-0.04,0.08-0.07,0.14-0.1,0.19c-0.15,0.33-0.23,0.64-0.25,0.93c-0.01,0.16,0.01,0.3,0.05,0.42
		c0.04,0.12,0.1,0.23,0.19,0.32c0.07,0.08,0.15,0.14,0.22,0.17c0.08,0.04,0.15,0.05,0.22,0.05c0.07,0,0.14-0.03,0.2-0.09
		c0.09-0.08,0.16-0.23,0.21-0.44c0.02-0.09,0.05-0.27,0.08-0.53c0.01-0.07,0.03-0.12,0.06-0.15c0.07-0.06,0.14-0.05,0.22,0.04
		l1.54,1.71L56.37,22.03z"/>
	<path class="st1" d="M59,26.9l-0.78-1.34c-0.04-0.03-0.08-0.05-0.11-0.06c-0.1-0.03-0.21-0.01-0.33,0.06
		c-0.07,0.06-0.15,0.06-0.25,0.02c-0.09-0.05-0.17-0.12-0.23-0.23c-0.06-0.1-0.09-0.19-0.09-0.26c0-0.13,0.05-0.32,0.16-0.57
		c0.12-0.28,0.24-0.45,0.35-0.52c0.13-0.07,0.25-0.06,0.38,0.04c0.04,0.03,0.09,0.09,0.17,0.18l1.34,2.32L59,26.9z"/>
	<path class="st1" d="M61.82,31.34l-0.27-1.17l-3.41,1.11l0.21-1.1l2.96-0.98c-0.17-0.63-0.31-1.05-0.59-1.69l-3.25,1.41l0.11-1.15
		l2.78-1.18c-0.61-1.45-1.33-2.87-2.23-4.22l-2.96,2l-0.11-1.15l2.5-1.69c-1.1-1.63-2.54-3.17-4.02-4.45l-2.35,2.7l-0.41-1.08
		l1.98-2.28c-0.53-0.41-0.86-0.69-1.45-1.08l-1.99,3.06l-0.55-1.01l0.48-0.74c-0.14-0.01-0.27-0.03-0.36-0.05
		c-0.28-0.06-0.54-0.14-0.78-0.26c-0.25-0.13-0.45-0.28-0.61-0.44c-0.2-0.22-0.34-0.48-0.4-0.77c-0.05-0.22-0.06-0.49-0.03-0.83
		c0.01-0.11,0.04-0.26,0.07-0.44c0.13,0.03,0.24,0.06,0.32,0.08c0.21,0.05,0.46,0.09,0.74,0.13c0.1,0.01,0.19,0.01,0.25-0.02
		c0.06-0.02,0.11-0.06,0.13-0.1c0.04-0.07,0.04-0.16,0-0.28c-0.01-0.02-0.02-0.01-0.03-0.04L47.27,13l-0.07-0.99
		c2.65,1.24,4.61,2.39,6.64,4.18l0.15-0.73c0.02-0.12,0.03-0.21,0.03-0.28c0-0.22-0.02-0.41-0.09-0.57
		c-0.05-0.1-0.09-0.19-0.13-0.25c-0.04-0.06-0.09-0.12-0.15-0.18c-0.02-0.02-0.03-0.03-0.05-0.04c-0.01-0.01-0.03-0.03-0.04-0.04
		l0.37-0.73c0.06,0.05,0.1,0.09,0.14,0.12c0.13,0.13,0.23,0.26,0.3,0.4c0.07,0.14,0.11,0.29,0.14,0.44c0.03,0.27,0,0.59-0.09,0.98
		c-0.03,0.13-0.09,0.29-0.14,0.51l-0.16,0.61c4.78,4.27,7.17,8.98,8.44,14.14L61.82,31.34L61.82,31.34z M50.47,14.79
		c-0.54-0.35-0.79-0.56-1.4-0.87c0.02,0.11,0.03,0.13,0.04,0.19c0.02,0.2,0,0.36-0.06,0.47c-0.03,0.07-0.08,0.12-0.14,0.17
		c-0.15,0.1-0.41,0.13-0.79,0.09c-0.12-0.01-0.3-0.05-0.54-0.1c-0.01,0.06-0.02,0.11-0.01,0.15c0.04,0.26,0.25,0.49,0.64,0.68
		c0.49,0.25,1.09,0.31,1.63,0.18C49.75,15.9,49.73,15.92,50.47,14.79z"/>
	<path class="st2" d="M9.89,40.66 M9.96,40.99l4.54-1.05l0.23,1.01l-2.61,1.46c0.46-0.14,0.86-0.26,1.2-0.35
		c0.34-0.09,0.63-0.17,0.86-0.22l0.71-0.16l0.2,0.87l-4.54,1.05l-0.23-1.02l2.7-1.48c-0.37,0.12-0.72,0.23-1.07,0.33
		c-0.35,0.1-0.69,0.19-1.02,0.27l-0.77,0.18L9.96,40.99z"/>
	<path class="st2" d="M10.75,44.37 M12.82,44.94l0.21,0.54l1.79-1L12.82,44.94L12.82,44.94z M10.76,44.41l4.68-0.8l0.43,1.11
		l-4.02,2.53l-0.36-0.93l0.79-0.44L12,45.15l-0.88,0.2L10.76,44.41z"/>
	<path class="st2" d="M11.96,47.53 M12.37,48.3l3.31-1.76l-0.38-0.71l0.8-0.42l1.24,2.33l-0.8,0.42l-0.39-0.74l-3.31,1.76
		L12.37,48.3z"/>
	<path class="st2" d="M13.48,50.38 M13.66,50.67l3.95-2.47l0.53,0.85l-3.95,2.47L13.66,50.67z"/>
	<path class="st2" d="M14.66,52.17 M17.45,52.71l0.67-0.51c0.41-0.31,0.65-0.53,0.71-0.65c0.06-0.12,0.04-0.24-0.05-0.37
		c-0.09-0.12-0.21-0.17-0.34-0.14c-0.14,0.03-0.41,0.19-0.81,0.5l-0.67,0.51c-0.4,0.3-0.64,0.52-0.7,0.64
		c-0.07,0.12-0.05,0.25,0.04,0.37c0.09,0.12,0.21,0.17,0.34,0.14C16.77,53.18,17.04,53.01,17.45,52.71L17.45,52.71z M16.67,50.98
		c0.45-0.34,0.79-0.57,1.01-0.69c0.23-0.13,0.43-0.2,0.59-0.22c0.24-0.03,0.46,0.01,0.65,0.11c0.2,0.1,0.38,0.26,0.55,0.48
		c0.17,0.22,0.27,0.44,0.31,0.66c0.04,0.22,0.01,0.43-0.08,0.66c-0.06,0.16-0.19,0.33-0.37,0.52c-0.18,0.18-0.5,0.45-0.94,0.78
		c-0.44,0.33-0.78,0.57-1.01,0.69c-0.23,0.13-0.43,0.2-0.6,0.22c-0.23,0.03-0.45-0.01-0.65-0.1c-0.2-0.1-0.38-0.26-0.55-0.48
		c-0.17-0.22-0.27-0.44-0.31-0.66c-0.04-0.22-0.01-0.44,0.08-0.66c0.06-0.16,0.19-0.33,0.37-0.51
		C15.91,51.58,16.23,51.32,16.67,50.98z"/>
	<path class="st2" d="M17.14,55.08 M17.39,55.32l3.23-3.35l0.75,0.72l-1.4,2.64c0.31-0.37,0.58-0.69,0.82-0.95
		c0.23-0.26,0.43-0.48,0.6-0.66l0.51-0.53l0.64,0.62l-3.23,3.35l-0.75-0.72l1.45-2.71c-0.24,0.3-0.48,0.59-0.72,0.86
		c-0.24,0.27-0.47,0.53-0.71,0.78l-0.55,0.57L17.39,55.32z"/>
	<path class="st2" d="M19.93,57.68 M21.97,57l0.47,0.33l0.93-1.83L21.97,57L21.97,57z M19.96,57.71l3.43-3.28l0.97,0.68l-1.92,4.34
		l-0.82-0.57l0.41-0.8l-0.64-0.45l-0.61,0.66L19.96,57.71z"/>
	<path class="st2" d="M22.94,59.67 M25.17,60.9l-1.93-1.07l2.26-4.07l0.87,0.48l-1.8,3.25l1.05,0.58L25.17,60.9z"/>
	<path class="st2" d="M27.1,61.65 M27.82,60.22l0.87,0.3l-0.04,0.13c-0.08,0.24-0.12,0.42-0.1,0.54c0.02,0.12,0.09,0.2,0.21,0.24
		c0.1,0.03,0.19,0.02,0.27-0.03c0.08-0.06,0.15-0.15,0.19-0.28c0.07-0.21,0-0.47-0.21-0.76c-0.03-0.05-0.06-0.09-0.08-0.11
		c-0.01-0.01-0.02-0.02-0.03-0.05c-0.28-0.41-0.45-0.7-0.49-0.87c-0.03-0.13-0.04-0.27-0.03-0.41c0.01-0.15,0.04-0.3,0.1-0.46
		c0.13-0.38,0.34-0.65,0.62-0.8c0.28-0.15,0.6-0.16,0.96-0.04c0.39,0.13,0.65,0.34,0.78,0.63c0.13,0.29,0.13,0.63-0.01,1.04
		c-0.01,0.02-0.02,0.04-0.03,0.07c-0.01,0.03-0.02,0.05-0.03,0.07l-0.85-0.29l0.02-0.05c0.07-0.19,0.09-0.35,0.07-0.47
		c-0.02-0.12-0.08-0.2-0.19-0.23c-0.09-0.03-0.17-0.02-0.25,0.03c-0.08,0.05-0.14,0.13-0.18,0.25c-0.06,0.19,0.02,0.44,0.26,0.75
		c0.04,0.06,0.07,0.11,0.1,0.14c0.02,0.02,0.05,0.06,0.08,0.11c0.25,0.34,0.4,0.61,0.44,0.8c0.02,0.12,0.03,0.25,0.01,0.39
		c-0.01,0.14-0.05,0.28-0.1,0.43c-0.15,0.44-0.37,0.74-0.66,0.91c-0.29,0.17-0.63,0.18-1.02,0.05c-0.41-0.14-0.68-0.36-0.81-0.66
		c-0.13-0.3-0.11-0.67,0.04-1.12c0.01-0.03,0.02-0.06,0.03-0.09C27.77,60.34,27.79,60.29,27.82,60.22z"/>
	<path class="st2" d="M30.37,62.7 M30.71,62.76l0.81-4.59l2.29,0.4l-0.16,0.89l-1.31-0.23l-0.15,0.84l1.21,0.21l-0.16,0.92L32.03,61
		l-0.18,1l1.31,0.23L33,63.16L30.71,62.76z"/>
	<path class="st2" d="M33.71,63.32 M35.09,60.62c0.02,0,0.04,0,0.07,0c0.03,0,0.05,0,0.06,0c0.21,0,0.36-0.04,0.44-0.13
		c0.09-0.09,0.13-0.24,0.14-0.46c0-0.2-0.04-0.34-0.12-0.43c-0.08-0.09-0.23-0.13-0.44-0.13c-0.01,0-0.03,0-0.06,0
		c-0.03,0-0.05,0-0.07,0L35.09,60.62L35.09,60.62z M34.05,63.32l0.08-4.66l1.12,0.02c0.37,0.01,0.64,0.03,0.8,0.07
		c0.17,0.04,0.3,0.11,0.4,0.2c0.12,0.11,0.21,0.25,0.27,0.41c0.06,0.16,0.08,0.35,0.08,0.57c0,0.27-0.05,0.49-0.14,0.67
		c-0.09,0.18-0.23,0.33-0.41,0.44c0.31,0.15,0.46,0.51,0.47,1.07c0,0.01,0,0.01,0,0.02c0,0.06,0,0.14,0,0.25
		c0,0.52,0.07,0.85,0.22,0.99l-1.17-0.02c-0.02-0.1-0.04-0.2-0.05-0.3c-0.01-0.11-0.01-0.22-0.01-0.34c0-0.07,0-0.17,0.01-0.27
		c0.01-0.11,0.01-0.18,0.01-0.21c0-0.28-0.03-0.48-0.09-0.59c-0.07-0.11-0.19-0.16-0.37-0.16l-0.21,0l-0.03,1.86L34.05,63.32z"/>
	<path class="st2" d="M37.49,63.38 M38.49,63.29l-1.36-4.56l1.05-0.09l0.58,2.4c0.03,0.11,0.06,0.25,0.09,0.42
		c0.04,0.18,0.07,0.37,0.11,0.57l0-0.06c0.01-0.49,0.01-0.81,0.02-0.95l0.16-2.48l1.05-0.09l-0.56,4.72L38.49,63.29z"/>
	<path class="st2" d="M41.13,63.01 M41.46,62.92l-1.13-4.52l0.97-0.24l1.13,4.52L41.46,62.92z"/>
	<path class="st2" d="M43.21,62.58 M44.61,60.19l0.93-0.32c0.01,0.03,0.02,0.05,0.03,0.08c0.01,0.03,0.03,0.08,0.05,0.14
		c0.19,0.54,0.21,0.97,0.09,1.31c-0.13,0.33-0.41,0.58-0.86,0.73c-0.26,0.09-0.5,0.12-0.72,0.09c-0.22-0.03-0.42-0.12-0.6-0.28
		c-0.13-0.11-0.25-0.28-0.37-0.51c-0.12-0.23-0.27-0.61-0.45-1.14c-0.18-0.53-0.3-0.92-0.35-1.18c-0.05-0.26-0.06-0.47-0.02-0.63
		c0.05-0.23,0.15-0.42,0.3-0.58c0.15-0.16,0.36-0.28,0.61-0.37c0.44-0.15,0.82-0.13,1.13,0.06c0.31,0.19,0.56,0.55,0.75,1.09
		l0.01,0.04l-0.92,0.31c-0.11-0.3-0.21-0.5-0.31-0.6c-0.1-0.1-0.22-0.13-0.36-0.08c-0.15,0.05-0.23,0.16-0.24,0.33
		c-0.01,0.17,0.1,0.57,0.32,1.2l0.03,0.08c0.23,0.68,0.41,1.09,0.51,1.22c0.11,0.13,0.24,0.18,0.39,0.12
		c0.14-0.05,0.22-0.14,0.24-0.27c0.02-0.13-0.02-0.35-0.13-0.65L44.61,60.19z"/>
	<path class="st2" d="M46.89,61.4 M47.19,61.23l-2.26-4.07l2.03-1.13l0.44,0.79l-1.17,0.65l0.42,0.75l1.08-0.6l0.45,0.82l-1.08,0.6
		l0.49,0.89l1.17-0.65l0.46,0.83L47.19,61.23z"/>
	<path class="st2" d="M51.18,59.05 M50.43,57.64l0.74-0.54l0.08,0.11c0.15,0.21,0.28,0.34,0.39,0.39c0.11,0.05,0.21,0.04,0.32-0.04
		c0.09-0.06,0.13-0.14,0.13-0.24c0-0.1-0.04-0.21-0.12-0.32c-0.13-0.18-0.38-0.27-0.74-0.26c-0.06,0-0.11,0-0.14,0
		c-0.01,0-0.03,0-0.06,0c-0.5,0-0.83-0.03-1-0.1c-0.12-0.05-0.24-0.12-0.35-0.21c-0.11-0.09-0.22-0.21-0.32-0.34
		c-0.24-0.33-0.34-0.65-0.3-0.97c0.04-0.31,0.21-0.58,0.52-0.81c0.33-0.24,0.66-0.34,0.97-0.28c0.31,0.06,0.59,0.26,0.84,0.61
		c0.01,0.02,0.03,0.04,0.04,0.06c0.02,0.03,0.03,0.05,0.04,0.06l-0.73,0.53l-0.03-0.05c-0.12-0.16-0.23-0.27-0.34-0.32
		c-0.11-0.05-0.21-0.04-0.3,0.02c-0.08,0.06-0.12,0.13-0.12,0.22c0,0.09,0.03,0.19,0.1,0.29c0.12,0.16,0.37,0.23,0.77,0.22
		c0.07,0,0.13,0,0.17,0c0.03,0,0.08,0,0.13,0c0.43-0.01,0.73,0.02,0.9,0.1c0.11,0.05,0.22,0.12,0.33,0.21
		c0.11,0.09,0.21,0.2,0.3,0.33c0.27,0.38,0.39,0.73,0.36,1.07c-0.03,0.33-0.21,0.62-0.55,0.87c-0.35,0.25-0.68,0.35-1,0.28
		c-0.32-0.07-0.62-0.29-0.9-0.68c-0.02-0.02-0.04-0.05-0.06-0.08C50.49,57.75,50.47,57.7,50.43,57.64z"/>
	<path class="st2" d="M53.93,56.94 M54.24,54.19l0.72-0.67c0.02,0.02,0.04,0.04,0.07,0.06c0.02,0.02,0.06,0.06,0.1,0.11
		c0.39,0.42,0.59,0.8,0.61,1.16c0.02,0.36-0.14,0.7-0.49,1.02c-0.2,0.19-0.41,0.31-0.62,0.38c-0.21,0.06-0.44,0.06-0.66-0.01
		c-0.16-0.05-0.34-0.15-0.55-0.32c-0.2-0.16-0.5-0.45-0.88-0.86c-0.38-0.41-0.65-0.72-0.8-0.94c-0.15-0.21-0.24-0.4-0.28-0.57
		c-0.05-0.23-0.04-0.45,0.04-0.66c0.07-0.21,0.21-0.41,0.41-0.59c0.34-0.32,0.7-0.45,1.06-0.41c0.36,0.05,0.74,0.28,1.12,0.69
		l0.03,0.03l-0.71,0.66c-0.22-0.23-0.39-0.37-0.53-0.42c-0.13-0.05-0.25-0.03-0.36,0.08c-0.12,0.11-0.14,0.24-0.08,0.4
		c0.06,0.15,0.32,0.48,0.78,0.97l0.06,0.06c0.49,0.53,0.81,0.83,0.97,0.91c0.15,0.08,0.29,0.06,0.41-0.05
		c0.11-0.1,0.15-0.22,0.11-0.34c-0.04-0.13-0.16-0.31-0.38-0.54L54.24,54.19z"/>
	<path class="st2" d="M56.7,54.28 M56.91,54.01l-3.67-2.87l0.62-0.79l1.39,1.08l0.49-0.63l-1.39-1.08l0.6-0.77l3.67,2.87l-0.6,0.77
		L56.5,51.4L56,52.03l1.52,1.19L56.91,54.01z"/>
	<path class="st2" d="M59.08,51.18 M59.25,50.88l-4.07-2.26l1.13-2.04l0.79,0.44l-0.65,1.17l0.75,0.41l0.6-1.08l0.82,0.45l-0.6,1.08
		l0.89,0.49l0.65-1.17l0.83,0.46L59.25,50.88z"/>
	<path class="st2" d="M60.78,48.21 M60.9,47.89l-4.35-1.67l0.5-1.31l1.99,0.35c0.01,0,0.13,0.03,0.37,0.09
		c0.23,0.06,0.47,0.12,0.7,0.17c-0.16-0.09-0.36-0.19-0.59-0.32c-0.24-0.13-0.36-0.2-0.39-0.22l-1.7-1.06l0.5-1.29l4.35,1.67
		l-0.34,0.88l-3.33-1.37l3.12,1.92l-0.27,0.71l-3.6-0.66l3.39,1.21L60.9,47.89z"/>
	<path class="st2" d="M62.47,43.5 M62.54,43.17l-4.54-1.05l0.52-2.27l0.88,0.2l-0.3,1.3l0.83,0.19l0.28-1.2l0.91,0.21l-0.28,1.2
		l0.99,0.23l0.3-1.3l0.92,0.21L62.54,43.17z"/>
	<circle class="st3" cx="36.5" cy="36.5" r="19.83"/>
	<path class="st4" d="M37.46,18.92c4.2,0.23,8,1.92,10.91,4.58l-4.27,4.27c-0.24-0.08-0.5-0.13-0.77-0.13
		c-1.28,0-2.32,1.04-2.32,2.32c0,0.27,0.05,0.53,0.13,0.77l-1.84,1.84c-0.55-0.37-1.17-0.63-1.85-0.76v-1.76
		c0.78-0.37,1.31-1.17,1.31-2.09c0-0.92-0.54-1.71-1.31-2.09V18.92L37.46,18.92z M49.77,24.94l-4.25,4.25
		c0.09,0.24,0.13,0.5,0.13,0.77c0,1.28-1.04,2.32-2.32,2.32c-0.27,0-0.53-0.05-0.77-0.13l-1.85,1.85c0.36,0.55,0.62,1.17,0.74,1.84
		h1.92c0.39-0.73,1.16-1.23,2.05-1.23c0.89,0,1.66,0.5,2.05,1.23h6.62C53.93,31.67,52.33,27.87,49.77,24.94L49.77,24.94z
		 M54.05,37.83c-0.31,4.07-1.99,7.75-4.6,10.58l-4.27-4.27c0.08-0.24,0.13-0.5,0.13-0.77c0-1.28-1.04-2.32-2.32-2.32
		c-0.27,0-0.53,0.05-0.77,0.13l-1.57-1.57c0.37-0.53,0.63-1.14,0.77-1.79h1.86c0.35,0.82,1.17,1.4,2.13,1.4
		c0.95,0,1.77-0.58,2.13-1.4H54.05L54.05,37.83z M48.02,49.81l-4.25-4.25c-0.24,0.09-0.5,0.13-0.77,0.13
		c-1.28,0-2.32-1.04-2.32-2.32c0-0.27,0.05-0.53,0.13-0.77l-1.59-1.59c-0.53,0.34-1.13,0.58-1.76,0.71v2.51
		c0.25,0.11,0.48,0.27,0.68,0.47c0.9,0.9,0.9,2.37,0,3.27c-0.2,0.2-0.43,0.36-0.68,0.47v5.63C41.49,53.86,45.16,52.29,48.02,49.81
		L48.02,49.81z M35.46,54.07c-4.02-0.23-7.67-1.82-10.52-4.3l4.27-4.27c0.21,0.06,0.43,0.09,0.65,0.09c1.28,0,2.32-1.04,2.32-2.32
		c0-0.23-0.03-0.44-0.09-0.65l1.65-1.65c0.52,0.34,1.1,0.59,1.73,0.72v2.57c-0.21,0.11-0.42,0.25-0.6,0.43c-0.9,0.9-0.9,2.37,0,3.27
		c0.18,0.18,0.38,0.32,0.6,0.43V54.07L35.46,54.07z M23.51,48.37l4.21-4.21c-0.11-0.27-0.17-0.57-0.17-0.88
		c0-1.28,1.04-2.32,2.32-2.32c0.31,0,0.61,0.06,0.88,0.17l1.57-1.57c-0.35-0.52-0.6-1.11-0.74-1.74H28.7
		c-0.11,0.23-0.26,0.45-0.45,0.64c-0.9,0.9-2.37,0.9-3.27,0c-0.19-0.19-0.34-0.41-0.45-0.64h-5.57
		C19.25,41.88,20.92,45.55,23.51,48.37L23.51,48.37z M18.91,35.83c0.15-4.14,1.74-7.92,4.28-10.86l4.7,4.7
		c-0.11,0.27-0.17,0.56-0.17,0.87c0,1.28,1.04,2.32,2.32,2.32c0.31,0,0.6-0.06,0.87-0.17l1.36,1.36c-0.34,0.54-0.59,1.14-0.71,1.79
		H28.7c-0.11-0.23-0.26-0.44-0.45-0.64c-0.9-0.9-2.37-0.9-3.27,0c-0.19,0.19-0.34,0.41-0.45,0.64H18.91L18.91,35.83z M24.59,23.54
		l4.78,4.78c0.21-0.06,0.44-0.1,0.67-0.1c1.28,0,2.32,1.04,2.32,2.32c0,0.23-0.03,0.46-0.1,0.67l1.4,1.4
		c0.54-0.37,1.15-0.64,1.81-0.78v-1.77c-0.78-0.37-1.32-1.17-1.32-2.09c0-0.92,0.54-1.72,1.32-2.09v-6.94
		C31.28,19.17,27.48,20.88,24.59,23.54z"/>
</g>
</svg>
